<?xml version="1.0" encoding="UTF-8"?>
<svg width="256px" height="256px" viewBox="0 0 256 256" version="1.1" xmlns="http://www.w3.org/2000/svg" xmlns:xlink="http://www.w3.org/1999/xlink">
    <title>Social Linkedin</title>
    <g id="Social-Linkedin" stroke="none" stroke-width="1" fill="none" fill-rule="evenodd">
        <path d="M94,192 L66,192 L66,101 L94,101 L94,192 Z M79.5005104,89 C70.3876102,89 63,81.6121519 63,72.5002532 C63,63.3873418 70.3886311,56 79.5005104,56 C88.6123898,56 96,63.3873418 96,72.5002532 C96.0005104,81.6126582 88.6129002,89 79.5005104,89 L79.5005104,89 Z M199,192 L171.144086,192 L171.144086,144.627713 C171.144086,131.634878 166.198728,124.382172 155.904006,124.382172 C144.699887,124.382172 138.846668,131.935861 138.846668,144.627713 L138.846668,192 L112,192 L112,101.752789 L138.846668,101.752789 L138.846668,113.907574 C138.846668,113.907574 146.922175,99 166.097342,99 C185.273022,99 199,110.68466 199,134.85677 L199,192 L199,192 Z" id="Shape" fill="#000000" fill-rule="nonzero"></path>
    </g>
</svg>