<?xml version="1.0" encoding="UTF-8"?>
<svg width="256px" height="256px" viewBox="0 0 256 256" version="1.1" xmlns="http://www.w3.org/2000/svg" xmlns:xlink="http://www.w3.org/1999/xlink">
    <title>Social Youtube</title>
    <g id="Social-Youtube" stroke="none" stroke-width="1" fill="none" fill-rule="evenodd">
        <path d="M128.090063,67.6034489 C131.153431,67.6067067 182.406562,67.7152982 195.540008,71.335015 C202.896416,73.2540789 208.759277,79.1169885 210.678338,86.4733508 C214.297925,99.6070786 214.306571,126.484358 214.303832,128.085174 L214.303198,128.364984 C214.294588,130.927488 214.122386,156.871574 210.678338,169.633348 C208.759277,177.096243 202.896416,182.852702 195.540008,184.878353 C182.406562,188.291131 131.153431,188.393514 128.090063,188.396585 L127.803842,188.396583 C124.752438,188.393418 73.69714,188.287931 60.4600035,184.771686 C53.1036488,182.745992 47.2406685,176.882944 45.2150036,169.526681 C41.8022201,156.599672 41.6998366,129.728803 41.6967651,128.128185 L41.6967651,127.97879 C41.6998366,126.383995 41.8022201,99.6070786 45.2150036,86.4733508 C47.2406685,79.1169885 53.2102651,73.1473261 60.4600035,71.1216817 C73.5937222,67.7088982 124.746233,67.6065147 127.803563,67.6034432 Z M110.781675,102.146678 L110.781675,153.853354 L155.666676,128.053349 L110.781675,102.146678 Z" id="Combined-Shape" fill="#000000" fill-rule="nonzero"></path>
    </g>
</svg>