<?xml version="1.0" encoding="UTF-8"?>
<svg width="256px" height="256px" viewBox="0 0 256 256" version="1.1" xmlns="http://www.w3.org/2000/svg" xmlns:xlink="http://www.w3.org/1999/xlink">
    <title>Social Dribbble</title>
    <g id="Social-Dribbble" stroke="none" stroke-width="1" fill="none" fill-rule="evenodd">
        <path d="M51,128 C51,114.037282 54.439436,101.152718 61.318,89.346 C68.196718,77.539282 77.539436,68.196718 89.346,61.318 C101.152718,54.439282 114.037436,51 128,51 C141.962718,51 154.847436,54.439282 166.654,61.318 C178.460718,68.196718 187.803436,77.539282 194.682,89.346 C201.560718,101.152718 205,114.037282 205,128 C205,141.962718 201.560718,154.847282 194.682,166.654 C187.803436,178.460718 178.460718,187.803282 166.654,194.682 C154.847436,201.560718 141.962718,205 128,205 C114.037436,205 101.152718,201.560718 89.346,194.682 C77.539436,187.803282 68.196718,178.460718 61.318,166.654 C54.439436,154.847282 51,141.962718 51,128 Z M64,127.449857 C64,143.541547 69.4021739,157.72498 80.2065217,170 C85.1456522,160.303673 92.9659935,151.071685 103.667391,142.303725 C114.368943,133.535765 124.813043,128.017244 135,125.747851 C133.456522,122.137587 131.964596,118.888304 130.523913,116 C112.825465,121.673404 93.6863348,124.510029 73.1065217,124.510029 C69.0934783,124.510029 66.1094717,124.458504 64.1543478,124.355301 C64.1543478,124.76796 64.1287261,125.283668 64.0771739,125.902579 C64.0257761,126.52149 64,127.037198 64,127.449857 Z M66,112.688889 C68.265322,112.896244 71.6117958,113 76.039267,113 C93.2348325,113 109.554974,110.666667 125,106 C117.174623,92 108.57684,80.3333333 99.2068063,71 C91.0725288,75.1482 84.0964738,80.9037556 78.2787958,88.2666667 C72.4612723,95.6295778 68.3683403,103.770422 66,112.688889 Z M89,178.518106 C100.618677,187.506086 113.728129,192 128.328358,192 C135.937085,192 143.494299,190.570153 151,187.710306 C148.943667,170.245125 144.933716,153.341741 138.970149,137 C129.510831,139.04266 119.974398,144.200557 110.360697,152.473538 C100.747149,160.746518 93.6268657,169.428092 89,178.518106 Z M112,66.1493776 C121.087008,75.4633983 129.502717,87.0801701 137.247283,101 C151.290813,95.1659751 161.875,87.745556 169,78.7385892 C157.021791,68.9128631 143.288043,64 127.798913,64 C122.532609,64 117.266304,64.7165104 112,66.1493776 Z M143,111.487805 C144.540881,114.783146 146.287314,118.953878 148.238994,124 C155.840774,123.279081 164.110063,122.918699 173.04717,122.918699 C179.416245,122.918699 185.733855,123.073171 192,123.382114 C191.178248,109.376642 186.144654,96.9160407 176.899371,86 C170.222274,95.9892114 158.922535,104.485146 143,111.487805 Z M152,134.776699 C157.271318,150.103612 160.837209,165.84466 162.697674,182 C170.863101,176.718447 177.529767,169.935223 182.697674,161.650485 C187.865736,153.365748 190.966512,144.407767 192,134.776699 C184.454884,134.258951 177.581395,134 171.379845,134 C165.695194,134 159.235194,134.258951 152,134.776699 Z" id="Shape" fill="#000000" fill-rule="nonzero"></path>
    </g>
</svg>